<?xml version="1.0" encoding="UTF-8"?>
<!DOCTYPE svg PUBLIC "-//W3C//DTD SVG 1.0//EN" "http://www.w3.org/TR/2001/REC-SVG-20010904/DTD/svg10.dtd">
<!-- Creator: CorelDRAW -->
<svg xmlns="http://www.w3.org/2000/svg" xml:space="preserve" width="44.7448mm" height="17.6579mm" version="1.0" style="shape-rendering:geometricPrecision; text-rendering:geometricPrecision; image-rendering:optimizeQuality; fill-rule:evenodd; clip-rule:evenodd"
viewBox="0 0 8354.53 3297"
 xmlns:xlink="http://www.w3.org/1999/xlink"
 xmlns:xodm="http://www.corel.com/coreldraw/odm/2003">
 <defs>
  <style type="text/css">
   <![CDATA[
    .fil0 {fill:#51A8B1;fill-rule:nonzero}
   ]]>
  </style>
 </defs>
 <g id="Camada_x0020_1">
  <metadata id="CorelCorpID_0Corel-Layer"/>
  <path class="fil0" d="M2733.12 2652.31c39.51,-76.76 52.41,-178.22 73.3,-266.27 20.35,-85.63 46.64,-173.37 73.45,-265.94 94.31,-325.76 99.43,-263.51 -41.47,-492.72 -52.43,-85.27 -465.33,-810.64 -505.33,-855.75l-281.53 469.22c-91.58,157.49 -112.91,86.92 121.14,473.02l543.32 921.25c11.5,14.23 6.82,8.81 17.1,17.2zm-2733.12 644.69c392.68,-154.58 817.96,-359.07 1187.27,-498.96 210,-79.56 389.39,-170.19 593.53,-249.43 94.35,-36.6 201.04,-82.49 297.92,-124.35l296.8 -130.59 -1083.36 49.59c4.89,-58.52 271.28,-511.82 321.71,-592.58l161.64 -290.49c69.42,-138.99 244.91,-409.02 333.14,-583.04 147.04,-289.99 206.32,-199 60.91,-444.14 -24.72,-41.67 -54.93,-100.9 -84.36,-147.43 -47.03,-74.37 -120.79,-229.29 -173.2,-285.58 -25.88,29.44 -95.97,156.41 -121.5,200.66l-1790.51 3096.34zm7516.13 -945.23l0 327.03c0,41.26 14.68,78.12 43.22,107.96 29.05,30.36 66.1,46.08 108.11,46.08 42.8,0 81.09,-15.01 110.82,-46.08 28.53,-29.84 43.22,-66.69 43.22,-107.96l0 -327.03c0,-28.62 23.34,-51.94 51.96,-51.94l327.01 0c41.99,0 79.07,-15.68 108.74,-45.33 29.65,-29.67 45.32,-66.73 45.32,-108.72 0,-41.99 -15.68,-79.06 -45.33,-108.72 -29.65,-29.65 -66.73,-45.33 -108.72,-45.33l-327.01 0c-28.62,0 -51.96,-23.32 -51.96,-51.94l0 -327.03c0,-41.28 -14.71,-78.1 -43.97,-107.36 -29.93,-29.93 -68,-43.97 -110.07,-43.97 -41.28,0 -78.1,14.71 -107.36,43.97 -29.26,29.26 -43.97,66.08 -43.97,107.36l0 327.03c0,28.62 -23.34,51.94 -51.96,51.94l-327.03 0c-41.28,0 -78.1,14.73 -107.34,43.97 -29.93,29.93 -43.97,68.02 -43.97,110.09 0,41.26 14.68,78.1 43.22,107.96 29.03,30.36 66.08,46.1 108.09,46.1l327.03 0c28.62,0 51.96,23.32 51.96,51.94zm-100.42 475.69c-6.78,0 -12.38,-2.11 -16.79,-6.31 -4.39,-4.18 -6.59,-9.69 -6.59,-16.49l0 -102.56 11.39 -47.37 35.38 8.98 0 140.95c0,6.8 -2.18,12.3 -6.59,16.49 -4.41,4.2 -9.99,6.31 -16.8,6.31zm-143.32 -38.99c23.17,0 43.88,-5.4 62.06,-16.19 18.2,-10.81 32.6,-25.69 43.19,-44.7 10.59,-18.99 15.89,-40.27 15.89,-63.88 0,-23.97 -5.3,-45.37 -15.89,-64.17 -10.59,-18.78 -24.98,-33.68 -43.19,-44.68 -18.19,-11 -38.89,-16.49 -62.06,-16.49 -22.8,0 -43.39,5.49 -61.78,16.49 -18.39,11 -32.99,25.9 -43.78,44.68 -10.79,18.8 -16.19,40.2 -16.19,64.17 0,23.6 5.4,44.89 16.19,63.88 10.79,19.01 25.39,33.89 43.78,44.7 18.39,10.79 38.99,16.19 61.78,16.19zm-4.82 41.99c-30.79,0 -58.37,-7.32 -82.75,-21.9 -24.39,-14.58 -43.69,-34.49 -57.88,-59.67 -14.19,-25.19 -21.3,-53.59 -21.3,-85.18 0,-31.97 7.3,-60.57 21.9,-85.76 14.6,-25.19 34.49,-45.07 59.67,-59.67 25.19,-14.6 53.59,-21.88 85.18,-21.88 31.57,0 59.86,7.28 84.84,21.88 25,14.6 44.79,34.49 59.39,59.67 14.6,25.19 22.09,53.79 22.48,85.76l-18.58 14.4c0,28.79 -6.7,54.69 -20.09,77.67 -13.41,22.98 -31.59,41.19 -54.6,54.58 -22.98,13.41 -49.07,20.11 -78.27,20.11zm-509.6 -3.01c-7.21,0 -12.9,-2.11 -17.1,-6.31 -4.2,-4.18 -6.29,-9.69 -6.29,-16.49l0 -281.88c0,-7.21 2.09,-12.9 6.29,-17.08 4.2,-4.22 9.9,-6.31 17.1,-6.31 6.8,0 12.29,2.09 16.49,6.31 4.2,4.18 6.29,9.88 6.29,17.08l0 281.88c0,6.8 -2.09,12.3 -6.29,16.49 -4.2,4.2 -9.69,6.31 -16.49,6.31zm257.89 0c-6.8,0 -12.4,-2.2 -16.8,-6.61 -4.39,-4.39 -6.59,-9.78 -6.59,-16.19l0 -155.93c0,-24.8 -4.71,-45.19 -14.08,-61.19 -9.41,-16 -22.2,-27.99 -38.41,-35.98 -16.19,-8.01 -34.47,-12.01 -54.86,-12.01 -19.61,0 -37.31,3.81 -53.08,11.41 -15.8,7.6 -28.29,17.98 -37.49,31.18 -9.19,13.2 -13.8,28.19 -13.8,44.98l-32.97 0c0.8,-25.19 7.58,-47.69 20.39,-67.48 12.79,-19.79 29.78,-35.38 50.97,-46.77 21.19,-11.41 44.79,-17.1 70.77,-17.1 28.4,0 53.79,5.9 76.18,17.7 22.39,11.8 40.09,29.09 53.08,51.87 13,22.8 19.49,50.58 19.49,83.39l0 155.93c0,6.4 -2.2,11.8 -6.61,16.19 -4.39,4.41 -9.78,6.61 -16.19,6.61zm-404.67 -390.46c-8.79,0 -16.37,-3.19 -22.78,-9.58 -6.4,-6.4 -9.6,-14.19 -9.6,-23.4 0,-9.99 3.29,-17.91 9.9,-23.69 6.59,-5.79 14.28,-8.7 23.1,-8.7 8.38,0 15.89,2.91 22.48,8.7 6.59,5.79 9.9,13.7 9.9,23.69 0,9.21 -3.21,16.99 -9.6,23.4 -6.39,6.39 -14.19,9.58 -23.4,9.58zm0.62 390.46c-7.21,0 -12.9,-2.11 -17.1,-6.31 -4.2,-4.18 -6.29,-9.88 -6.29,-17.08l0 -281.29c0,-7.21 2.09,-12.9 6.29,-17.08 4.2,-4.22 9.9,-6.31 17.1,-6.31 6.78,0 12.29,2.09 16.49,6.31 4.18,4.18 6.29,9.88 6.29,17.08l0 281.29c0,7.21 -2.11,12.9 -6.29,17.08 -4.2,4.2 -9.71,6.31 -16.49,6.31zm-225.94 3.01c-31.59,0 -59.67,-7.32 -84.26,-21.9 -24.59,-14.58 -43.99,-34.49 -58.18,-59.67 -14.19,-25.19 -21.3,-53.59 -21.3,-85.18 0,-31.97 6.82,-60.57 20.41,-85.76 13.59,-25.19 32.19,-45.07 55.77,-59.67 23.6,-14.6 50.79,-21.88 81.58,-21.88 24.39,0 46.87,4.78 67.48,14.4 20.58,9.58 38.67,23.97 54.26,43.17 4.41,4.8 5.99,9.9 4.8,15.29 -1.19,5.4 -4.59,10.1 -10.19,14.1 -4.39,3.21 -9.28,4.29 -14.69,3.3 -5.4,-1.01 -10.1,-3.9 -14.08,-8.7 -23.19,-26.38 -52.39,-39.58 -87.57,-39.58 -22.39,0 -42.09,5.4 -59.08,16.19 -16.99,10.79 -30.19,25.6 -39.58,44.38 -9.41,18.8 -14.1,40.39 -14.1,64.77 0,24.01 4.99,45.39 14.99,64.17 9.99,18.8 23.99,33.59 41.99,44.4 17.98,10.79 38.58,16.19 61.77,16.19 15.59,0 29.89,-2.11 42.87,-6.29 13.01,-4.2 24.5,-10.7 34.5,-19.49 4.78,-4.01 9.78,-6.2 14.99,-6.61 5.19,-0.39 9.99,1.21 14.4,4.8 4.8,4.41 7.49,9.39 8.08,14.99 0.6,5.6 -1.29,10.4 -5.69,14.4 -29.18,26.79 -65.57,40.2 -109.15,40.2zm-269.73 -393.46c-8.79,0 -16.37,-3.19 -22.78,-9.58 -6.4,-6.4 -9.6,-14.19 -9.6,-23.4 0,-9.99 3.3,-17.91 9.9,-23.69 6.59,-5.79 14.28,-8.7 23.1,-8.7 8.38,0 15.89,2.91 22.48,8.7 6.61,5.79 9.9,13.7 9.9,23.69 0,9.21 -3.19,16.99 -9.6,23.4 -6.39,6.39 -14.19,9.58 -23.4,9.58zm0.62 390.46c-7.21,0 -12.9,-2.11 -17.1,-6.31 -4.2,-4.18 -6.29,-9.88 -6.29,-17.08l0 -281.29c0,-7.21 2.09,-12.9 6.29,-17.08 4.2,-4.22 9.9,-6.31 17.1,-6.31 6.8,0 12.29,2.09 16.49,6.31 4.2,4.18 6.29,9.88 6.29,17.08l0 281.29c0,7.21 -2.09,12.9 -6.29,17.08 -4.2,4.2 -9.69,6.31 -16.49,6.31zm-290.12 -38.99c23.19,0 43.88,-5.49 62.08,-16.49 18.19,-11 32.58,-25.9 43.17,-44.68 10.61,-18.8 15.91,-40.2 15.91,-64.19 0,-23.58 -5.3,-44.87 -15.91,-63.88 -10.59,-18.99 -24.98,-33.89 -43.17,-44.68 -18.2,-10.79 -38.89,-16.19 -62.08,-16.19 -22.8,0 -43.37,5.4 -61.78,16.19 -18.37,10.79 -32.97,25.69 -43.77,44.68 -10.81,19.01 -16.21,40.29 -16.21,63.88 0,23.99 5.4,45.39 16.21,64.19 10.79,18.78 25.39,33.68 43.77,44.68 18.41,11 38.99,16.49 61.78,16.49zm0 41.99c-31.59,0 -59.97,-7.32 -85.16,-21.9 -25.19,-14.58 -45.09,-34.49 -59.67,-59.67 -14.6,-25.19 -21.9,-53.77 -21.9,-85.78 0,-31.57 7.1,-59.97 21.29,-85.16 14.21,-25.19 33.5,-45.07 57.88,-59.67 24.4,-14.6 51.98,-21.88 82.77,-21.88 26.79,0 50.97,5.69 72.58,17.08 21.58,11.39 38.99,26.49 52.17,45.28l0 -176.32c0,-7.21 2.2,-12.9 6.61,-17.1 4.39,-4.2 9.99,-6.29 16.79,-6.29 6.8,0 12.4,2.09 16.8,6.29 4.39,4.2 6.59,9.9 6.59,17.1l0 283.08c-0.8,31.18 -8.5,59.28 -23.1,84.26 -14.58,25 -34.39,44.68 -59.38,59.08 -24.98,14.4 -53.08,21.6 -84.26,21.6zm-339.3 0c-32.4,0 -61.07,-7.11 -86.06,-21.3 -25,-14.19 -44.59,-33.89 -58.78,-59.08 -14.19,-25.19 -21.3,-53.98 -21.3,-86.37 0,-32.77 6.7,-61.67 20.11,-86.65 13.39,-25 31.87,-44.68 55.47,-59.08 23.58,-14.4 50.79,-21.58 81.58,-21.58 30.38,0 56.87,6.89 79.47,20.69 22.57,13.8 40.07,32.88 52.47,57.27 12.4,24.4 18.6,52.19 18.6,83.37 0,6.4 -2,11.5 -5.99,15.29 -4,3.81 -9.21,5.71 -15.59,5.71l-254.9 0 0 -38.39 259.68 0 -25.79 18.6c0.41,-23.21 -3.79,-43.99 -12.58,-62.38 -8.79,-18.39 -21.3,-32.79 -37.49,-43.19 -16.19,-10.4 -35.48,-15.59 -57.86,-15.59 -22.8,0 -42.8,5.4 -59.99,16.19 -17.2,10.81 -30.49,25.69 -39.88,44.68 -9.39,19.01 -14.1,40.69 -14.1,65.07 0,24.4 5.3,45.99 15.91,64.79 10.59,18.78 25.08,33.57 43.47,44.36 18.41,10.81 39.58,16.21 63.58,16.21 14.4,0 28.88,-2.5 43.49,-7.51 14.6,-4.99 26.29,-11.3 35.08,-18.88 4.41,-3.6 9.39,-5.51 14.99,-5.69 5.6,-0.21 10.4,1.29 14.4,4.48 5.19,4.82 7.9,10.01 8.1,15.61 0.19,5.6 -2.11,10.38 -6.89,14.4 -13.2,11.18 -30.01,20.48 -50.39,27.88 -20.39,7.39 -39.98,11.11 -58.78,11.11zm-465.24 -3.01c-6.8,0 -12.4,-2.11 -16.79,-6.31 -4.41,-4.18 -6.61,-9.69 -6.61,-16.49l0 -172.73c0,-28.38 -7.39,-50.88 -22.18,-67.46 -14.79,-16.6 -33.8,-24.91 -56.97,-24.91 -24.8,0 -45.19,8.1 -61.19,24.29 -16,16.19 -23.99,37.29 -23.99,63.28l-32.97 0c0.78,-25.58 6.48,-48.28 17.08,-68.08 10.59,-19.77 25.09,-35.29 43.49,-46.47 18.39,-11.2 39.17,-16.8 62.38,-16.8 23.58,0 44.48,5.6 62.66,16.8 18.19,11.18 32.4,26.98 42.59,47.37 10.19,20.41 15.29,44.38 15.29,71.98l0 172.73c0,6.8 -2.09,12.3 -6.29,16.49 -4.2,4.2 -9.71,6.31 -16.51,6.31zm-210.52 0c-7.19,0 -12.88,-2.11 -17.08,-6.31 -4.2,-4.18 -6.29,-9.69 -6.29,-16.49l0 -281.88c0,-6.8 2.09,-12.4 6.29,-16.79 4.2,-4.41 9.9,-6.61 17.08,-6.61 6.82,0 12.3,2.2 16.51,6.61 4.2,4.39 6.29,9.99 6.29,16.79l0 281.88c0,6.8 -2.09,12.3 -6.29,16.49 -4.2,4.2 -9.69,6.31 -16.51,6.31zm419.85 0c-6.8,0 -12.4,-2.11 -16.8,-6.31 -4.39,-4.18 -6.59,-9.69 -6.59,-16.49l0 -172.73c0,-28.38 -7.39,-50.88 -22.18,-67.46 -14.81,-16.6 -33.8,-24.91 -56.99,-24.91 -24.8,0 -45.09,8.31 -60.87,24.91 -15.81,16.58 -23.51,38.67 -23.1,66.27l-41.38 0c0.39,-26.79 6.18,-50.38 17.38,-70.78 11.2,-20.39 26.59,-36.19 46.17,-47.37 19.61,-11.2 41.79,-16.8 66.58,-16.8 23.6,0 44.48,5.6 62.68,16.8 18.19,11.18 32.38,26.98 42.57,47.37 10.19,20.41 15.29,44.38 15.29,71.98l0 172.73c0,6.8 -2.09,12.3 -6.29,16.49 -4.2,4.2 -9.69,6.31 -16.49,6.31zm-645.16 3.01c-32.4,0 -61.09,-7.11 -86.08,-21.3 -25,-14.19 -44.59,-33.89 -58.78,-59.08 -14.19,-25.19 -21.3,-53.98 -21.3,-86.37 0,-32.77 6.72,-61.67 20.11,-86.65 13.39,-25 31.89,-44.68 55.47,-59.08 23.6,-14.4 50.79,-21.58 81.58,-21.58 30.38,0 56.87,6.89 79.47,20.69 22.59,13.8 40.07,32.88 52.47,57.27 12.4,24.4 18.6,52.19 18.6,83.37 0,6.4 -2,11.5 -5.99,15.29 -4,3.81 -9.21,5.71 -15.59,5.71l-254.9 0 0 -38.39 259.68 0 -25.79 18.6c0.41,-23.21 -3.79,-43.99 -12.58,-62.38 -8.79,-18.39 -21.29,-32.79 -37.49,-43.19 -16.19,-10.4 -35.48,-15.59 -57.86,-15.59 -22.8,0 -42.8,5.4 -59.99,16.19 -17.18,10.81 -30.49,25.69 -39.88,44.68 -9.39,19.01 -14.08,40.69 -14.08,65.07 0,24.4 5.28,45.99 15.89,64.79 10.59,18.78 25.08,33.57 43.47,44.36 18.41,10.81 39.58,16.21 63.6,16.21 14.38,0 28.87,-2.5 43.47,-7.51 14.6,-4.99 26.29,-11.3 35.1,-18.88 4.39,-3.6 9.37,-5.51 14.97,-5.69 5.6,-0.21 10.4,1.29 14.4,4.48 5.19,4.82 7.9,10.01 8.1,15.61 0.19,5.6 -2.11,10.38 -6.89,14.4 -13.2,11.18 -30.01,20.48 -50.39,27.88 -20.39,7.39 -39.98,11.11 -58.76,11.11zm-211.55 -3.01c-16,0 -30.3,-4.41 -42.89,-13.2 -12.6,-8.79 -22.39,-20.99 -29.39,-36.58 -7,-15.61 -10.49,-33.59 -10.49,-53.98l0 -341.88c0,-6.8 2.09,-12.29 6.29,-16.49 4.2,-4.2 9.69,-6.29 16.49,-6.29 6.82,0 12.3,2.09 16.51,6.29 4.2,4.2 6.29,9.69 6.29,16.49l0 341.88c0,17.2 3.51,31.18 10.49,41.97 7,10.79 15.89,16.19 26.7,16.19l14.97 0c6.01,0 10.81,2.11 14.4,6.31 3.6,4.18 5.4,9.69 5.4,16.49 0,6.8 -2.48,12.3 -7.49,16.49 -4.99,4.2 -11.5,6.31 -19.49,6.31l-7.79 0zm-272.72 3.01c-32.4,0 -61.07,-7.11 -86.08,-21.3 -24.98,-14.19 -44.57,-33.89 -58.78,-59.08 -14.19,-25.19 -21.29,-53.98 -21.29,-86.37 0,-32.77 6.7,-61.67 20.09,-86.65 13.41,-25 31.89,-44.68 55.47,-59.08 23.6,-14.4 50.79,-21.58 81.58,-21.58 30.4,0 56.87,6.89 79.47,20.69 22.59,13.8 40.09,32.88 52.49,57.27 12.4,24.4 18.6,52.19 18.6,83.37 0,6.4 -2.02,11.5 -5.99,15.29 -4.01,3.81 -9.21,5.71 -15.61,5.71l-254.9 0 0 -38.39 259.7 0 -25.79 18.6c0.41,-23.21 -3.81,-43.99 -12.6,-62.38 -8.79,-18.39 -21.29,-32.79 -37.47,-43.19 -16.21,-10.4 -35.49,-15.59 -57.88,-15.59 -22.8,0 -42.78,5.4 -59.97,16.19 -17.2,10.81 -30.49,25.69 -39.88,44.68 -9.41,19.01 -14.1,40.69 -14.1,65.07 0,24.4 5.28,45.99 15.89,64.79 10.61,18.78 25.09,33.57 43.49,44.36 18.39,10.81 39.58,16.21 63.58,16.21 14.4,0 28.88,-2.5 43.49,-7.51 14.58,-4.99 26.27,-11.3 35.08,-18.88 4.39,-3.6 9.39,-5.51 14.99,-5.69 5.6,-0.21 10.38,1.29 14.4,4.48 5.19,4.82 7.9,10.01 8.1,15.61 0.19,5.6 -2.11,10.38 -6.91,14.4 -13.2,11.18 -29.99,20.48 -50.39,27.88 -20.37,7.39 -39.98,11.11 -58.76,11.11zm-393.28 -278.9c-5.99,0 -10.98,-1.9 -14.99,-5.71 -4,-3.79 -5.99,-8.5 -5.99,-14.08 0,-5.99 2,-10.9 5.99,-14.69 4.01,-3.81 9,-5.69 14.99,-5.69l152.94 0c6.01,0 11,1.89 15.01,5.69 4,3.79 5.99,8.7 5.99,14.69 0,5.58 -2,10.29 -5.99,14.08 -4.01,3.81 -9,5.71 -15.01,5.71l-152.94 0zm149.35 275.89c-21.19,0 -40.09,-5 -56.69,-14.99 -16.58,-9.99 -29.69,-23.69 -39.28,-41.08 -9.6,-17.4 -14.4,-37.31 -14.4,-59.69l0 -293.27c0,-6.8 2.09,-12.4 6.31,-16.8 4.18,-4.39 9.69,-6.59 16.49,-6.59 6.8,0 12.4,2.2 16.79,6.59 4.41,4.41 6.61,10.01 6.61,16.8l0 293.27c0,20.41 5.99,37.1 17.98,50.08 12.01,13.01 27.39,19.49 46.19,19.49l16.19 0c6.4,0 11.6,2.2 15.59,6.61 4.01,4.39 5.99,9.99 5.99,16.79 0,6.8 -2.39,12.3 -7.19,16.49 -4.8,4.2 -10.79,6.31 -18,6.31l-12.58 0zm1356.37 -1990.65l-203.69 4 -71.83 274.28 197.88 3.88c-32.58,205.39 -235.19,724.19 -173.68,889.94 115.33,310.86 825.36,174.45 849.82,152.21 26.76,-27.99 34.32,-91.49 45.84,-133.35 12.45,-45.24 31.83,-97.2 37.62,-142.99 -99.18,-14.69 -505.36,170.84 -413.65,-191.7l155.81 -570.06 459.21 -4.91 73.23 -275.26 -457.06 -3.02 97.15 -383.2 -494.22 -2.32 -102.43 382.49zm1731.37 -33.27c-428.19,56.78 -779.74,276.13 -860.94,722.85 -47.99,263.9 39.99,468.58 192.24,567.89 165.78,108.16 418.41,150.94 662.05,120.19l5.73 -0.78c-7.3,-21.42 -11.05,-44.21 -11.05,-67.93 0,-55.92 19.53,-107.17 59.19,-146.81 38.99,-38.99 89.01,-59.19 144.09,-59.19l327.03 0 0 -327.03c0,-55.08 20.2,-105.12 59.19,-144.11 38.99,-38.99 89.01,-59.19 144.11,-59.19 47.63,0 91.85,14.19 128.42,42.89 37.75,-258.3 -44.12,-422.82 -197.04,-532.18 -148.23,-106 -431.63,-145.94 -653.02,-116.6zm2.28 289.97c293.33,-66.12 383.83,143.79 332.91,409.54 -92.14,480.74 -545.25,492.01 -654.81,336.68 -97.35,-138 -40.13,-664.63 321.9,-746.23zm-3129.76 -127.71l27.13 -122.58 -489.14 -3.17c-26.18,56.59 -241.91,900.56 -268.24,995.49 -45.15,162.76 -87.07,334.52 -133.46,497.19 -20.54,72.02 -128.59,462.87 -126.57,503.46l484.04 -0.06c43.58,-69.68 152.68,-621.71 199.67,-722.98 112.31,39.9 176.11,77.26 316.3,88.52 691.93,55.6 1071.07,-602.51 982.66,-1052.07 -45.54,-231.64 -215.97,-349.05 -477.51,-348.41 -109.96,0.28 -201.62,23.6 -286.93,55.96 -76.4,28.96 -162.68,93.69 -227.96,108.65zm-239.05 911.24c22.65,-185.78 110.11,-418.24 153.55,-607.37 18.3,-79.63 12.86,-69.96 80.53,-97.67 47.65,-19.51 88.24,-37.66 144.2,-48.86 496.48,-99.54 361.95,469.18 202.4,636.42 -150.46,157.7 -326.84,170.75 -580.68,117.48z"/>
 </g>
</svg>
