<?xml version="1.0" encoding="UTF-8"?>
<!DOCTYPE svg PUBLIC "-//W3C//DTD SVG 1.0//EN" "http://www.w3.org/TR/2001/REC-SVG-20010904/DTD/svg10.dtd">
<!-- Creator: CorelDRAW -->
<svg xmlns="http://www.w3.org/2000/svg" xml:space="preserve" width="21.501mm" height="21.501mm" version="1.0" style="shape-rendering:geometricPrecision; text-rendering:geometricPrecision; image-rendering:optimizeQuality; fill-rule:evenodd; clip-rule:evenodd"
viewBox="0 0 336.95 336.95"
 xmlns:xlink="http://www.w3.org/1999/xlink"
 xmlns:xodm="http://www.corel.com/coreldraw/odm/2003">
 <defs>
  <style type="text/css">
   <![CDATA[
    .fil0 {fill:#51A8B1;fill-rule:nonzero}
   ]]>
  </style>
 </defs>
 <g id="Camada_x0020_1">
  <metadata id="CorelCorpID_0Corel-Layer"/>
  <path class="fil0" d="M250.23 157.39c-10.39,-17.86 -35.59,-61.85 -38.43,-65.06l-23.63 39.38c-7.69,13.22 -9.48,7.3 10.17,39.7l25.39 43.05 1.31 0 0 -35.32c0,-5.95 2.18,-11.36 6.39,-15.57 4.21,-4.21 9.61,-6.39 15.56,-6.39 1.1,0 2.17,0.07 3.23,0.21zm-234.25 146.9c32.96,-12.97 68.65,-30.14 99.65,-41.88 17.63,-6.68 32.68,-14.28 49.82,-20.94 0.86,-0.33 1.73,-0.67 2.61,-1.02 -0.2,-1.22 -0.3,-2.47 -0.3,-3.74 0,-5.51 1.76,-10.6 5.32,-14.7l-48.64 2.23c0.41,-4.91 22.77,-42.96 27,-49.74l13.57 -24.38c5.83,-11.67 20.56,-34.33 27.96,-48.94 12.34,-24.34 17.32,-16.7 5.11,-37.28 -2.07,-3.5 -4.61,-8.47 -7.08,-12.38 -3.95,-6.24 -10.14,-19.24 -14.54,-23.97 -2.17,2.47 -8.06,13.13 -10.2,16.84l-150.28 259.88zm214.67 -45.32l0 35.32c0,4.46 1.59,8.44 4.67,11.66 3.14,3.28 7.14,4.98 11.68,4.98 4.62,0 8.76,-1.62 11.97,-4.98 3.08,-3.22 4.67,-7.2 4.67,-11.66l0 -35.32c0,-3.09 2.52,-5.61 5.61,-5.61l35.32 0c4.54,0 8.54,-1.69 11.75,-4.9 3.2,-3.2 4.89,-7.21 4.89,-11.74 0,-4.54 -1.69,-8.54 -4.9,-11.74 -3.2,-3.2 -7.21,-4.9 -11.74,-4.9l-35.32 0c-3.09,0 -5.61,-2.52 -5.61,-5.61l0 -35.32c0,-4.46 -1.59,-8.44 -4.75,-11.6 -3.23,-3.23 -7.35,-4.75 -11.89,-4.75 -4.46,0 -8.44,1.59 -11.6,4.75 -3.16,3.16 -4.75,7.14 -4.75,11.6l0 35.32c0,3.09 -2.52,5.61 -5.61,5.61l-35.32 0c-4.46,0 -8.44,1.59 -11.6,4.75 -3.23,3.23 -4.75,7.35 -4.75,11.89 0,4.46 1.59,8.44 4.67,11.66 3.14,3.28 7.14,4.98 11.68,4.98l35.32 0c3.09,0 5.61,2.52 5.61,5.61zm-7.29 68.83c-17.21,5.93 -35.67,9.15 -54.89,9.15 -35.69,0 -68.8,-11.1 -96.04,-30.04 4.41,-1.93 8.82,-3.86 13.24,-5.77 24.01,15.02 52.39,23.7 82.8,23.7 15.76,0 30.98,-2.34 45.32,-6.67 1.16,1.63 2.46,3.2 3.87,4.68 1.77,1.85 3.67,3.51 5.69,4.96zm113.46 -165.24c0.03,0.88 0.06,1.87 0.08,2.97l0.05 2.94c0,13.16 -1.51,25.96 -4.36,38.25 -3.25,-3.04 -6.89,-5.5 -10.81,-7.32 2.01,-10 3.06,-20.34 3.06,-30.93l-0 -2.75c-0.01,-0.8 -0.04,-1.71 -0.07,-2.73l0 -0.02c-1.48,-42.07 -19.49,-79.78 -47.66,-106.98 -28.17,-27.2 -66.5,-43.87 -108.63,-43.87 -43.18,0 -82.27,17.5 -110.56,45.8 -28.3,28.29 -45.8,67.39 -45.8,110.56 0,24.13 5.47,46.98 15.23,67.38l-7.23 12.5c-12.83,-23.77 -20.11,-50.98 -20.11,-79.89 0,-46.52 18.86,-88.64 49.34,-119.13 30.49,-30.49 72.61,-49.34 119.13,-49.34 45.36,0 86.65,17.97 117,47.28 30.34,29.3 49.75,69.94 51.35,115.29z"/>
 </g>
</svg>
